<?xml version="1.0" standalone="no"?><!DOCTYPE svg PUBLIC "-//W3C//DTD SVG 1.1//EN" "http://www.w3.org/Graphics/SVG/1.1/DTD/svg11.dtd"><svg class="icon" width="200px" height="200.00px" viewBox="0 0 1024 1024" version="1.1" xmlns="http://www.w3.org/2000/svg"><path d="M340.1 619.4v295l180.2-147.3L701 914.4l-0.7-295.3z" fill="#5BB4F1" /><path d="M585.1 727.2c-12.5-14.2-24.4-27.7-36.7-41.7-9.4 16.2-18.5 31.9-27.9 48.1-9.4-16.2-18.4-31.8-27.8-48.1-12.3 14-24.2 27.5-36.7 41.7-6.1-17.9-11.9-34.9-18-52.6-14.7 11.3-29.1 22.2-44.1 33.8-2.5-18.6-4.9-36.5-7.3-55.1-16.6 8.1-32.8 16.1-49.9 24.4 1.2-18.8 2.3-36.8 3.5-55.4-17.9 4.8-35.3 9.4-53.7 14.3 4.8-18.2 9.4-35.6 14.3-53.7-18.6 1.2-36.4 2.3-55.3 3.5 2.6-6.1 5.4-11.3 8-16.6 2.7-5.4 5.4-10.8 8-16.3 2.7-5.4 5.3-10.8 8.3-17-18.4-2.5-36.1-4.8-54.2-7.2 0.9-3.9 4-6.1 6-9.1 2.1-3 4.5-5.9 6.7-8.8 2.1-2.8 4.3-5.6 6.4-8.4 2.3-2.9 4.5-5.9 6.8-8.8 2.2-2.9 4.4-5.8 7-9.2-17.6-6-34.5-11.8-52.4-17.9 4.8-4.7 9.4-8.4 13.8-12.3 4.5-4 9.1-8 13.6-12s9-7.9 14.2-12.4c-16.2-9.4-31.7-18.4-48.1-27.9 16.3-9.4 31.9-18.5 48.1-27.9-13.9-12.3-27.4-24.1-41.6-36.6 17.5-6.5 34.7-11.8 52.4-18.1-11.3-14.7-22.2-29-33.7-44.1 18.7-2.5 36.5-4.9 55.1-7.4-8.2-16.7-16.1-32.8-24.4-49.7 18.7 0.6 36.6 2.5 55.3 3.2-4.8-17.9-9.4-35.3-14.2-53.6 18.3 4.9 35.7 9.5 53.7 14.3-1.2-18.5-2.3-36.3-3.5-55 4.7 1.3 8.4 3.7 12.4 5.6 4.3 2 8.4 4.1 12.7 6.2 4.1 2 8.1 4 12.2 6 4 2 8.1 3.9 12.6 6.1 2.5-18.5 4.9-36.4 7.3-55 15 11.5 29.3 22.5 44.1 33.8 6-17.6 11.8-34.7 18-52.6 12.5 14.2 24.4 27.7 36.7 41.7 9.4-16.2 18.4-31.9 27.8-48.1 9.4 16.2 18.4 31.8 27.9 48.1 12.3-13.9 24.2-27.5 36.7-41.7 6.1 17.8 11.9 34.9 18 52.6 14.7-11.2 29-22.2 44.1-33.8 2.5 18.6 4.9 36.4 7.3 55.1 16.6-8.1 32.7-16 49.9-24.4-1.2 18.8-2.4 36.7-3.5 55.4 17.9-4.8 35.3-9.4 53.5-14.2-4.2 18.2-9.6 35.4-13.9 53.6 18.5-1.2 36.5-2.3 55.3-3.5-8.3 16.9-16.2 33-24.5 49.8 18.5 2.5 36.3 4.9 55.1 7.4-11.5 15-22.4 29.3-33.8 44.1 17.6 6 34.5 11.8 52 17.8-3 4-6.7 6.5-9.9 9.5-3.3 3.1-6.8 6-10.2 9l-10.2 9c-3.4 3-6.7 6-10.7 9.5 16.1 9.3 31.7 18.3 48.1 27.8-16.3 9.4-31.9 18.5-48.1 27.9 13.9 12.3 27.4 24.1 41.6 36.6-17.5 6.5-34.7 11.8-52.4 18.1 11.3 14.7 22.2 29 33.7 44.1-18.7 2.5-36.5 4.9-55.1 7.4 8.2 16.7 16.1 32.8 24.4 49.7-18.7-0.6-36.6-2.5-55.4-3.3 4.8 18 9.4 35.4 14.2 53.6-18.3-4.9-35.7-9.5-53.7-14.3 1.2 18.5 2.3 36.3 3.5 55-4.7-1.3-8.4-3.8-12.4-5.6-4.3-2-8.4-4.1-12.7-6.2-4.1-2-8.1-4-12.2-6-4-2-8.1-3.9-12.6-6.1-2.5 18.5-4.9 36.4-7.3 55.1-15-11.5-29.3-22.5-44.1-33.8-6.1 17.6-12 34.7-18.1 52.6z" fill="#1983CD" /><path d="M370.8 310.9h157.3v26H370.8zM370.8 375.5h157.3v26H370.8z" fill="#FFFFFF" /><path d="M454.014 277.457l-49.884 186.65-25.119-6.713 49.884-186.65zM516.04 277.512l-49.884 186.65-25.118-6.713 49.884-186.65zM654.5 274.9h35.3v212.8h-35.3z" fill="#FFFFFF" /><path d="M603.467 336.21l51.144-61.387 20.207 16.834-51.144 61.387z" fill="#FFFFFF" /></svg>