<?xml version="1.0" standalone="no"?><!DOCTYPE svg PUBLIC "-//W3C//DTD SVG 1.1//EN" "http://www.w3.org/Graphics/SVG/1.1/DTD/svg11.dtd"><svg class="icon" width="200px" height="200.00px" viewBox="0 0 1024 1024" version="1.1" xmlns="http://www.w3.org/2000/svg"><path d="M640.1 448.2m-59.1 0a59.1 59.1 0 1 0 118.2 0 59.1 59.1 0 1 0-118.2 0Z" fill="#FFFFFF" /><path d="M384.1 448.2m-59.1 0a59.1 59.1 0 1 0 118.2 0 59.1 59.1 0 1 0-118.2 0Z" fill="#FFFFFF" /><path d="M407.2 674.7s-17.3 81.4-79.6 58.7V801h368.7v-67.6s-56.5 22.3-79.4-58.7H407.2z" fill="#515F79" /><path d="M916 679H110c-6.6 0-12-5.4-12-12V541.2c0-6.6 5.4-12 12-12h806c6.6 0 12 5.4 12 12V667c0 6.6-5.4 12-12 12z" fill="#6F82A3" /><path d="M928 578.9H98V115.1c0-9.3 7.6-16.9 16.9-16.9h796.2c9.3 0 16.9 7.6 16.9 16.9v463.8z" fill="#A6B5D4" /><path d="M512.1 640m-17.2 0a17.2 17.2 0 1 0 34.4 0 17.2 17.2 0 1 0-34.4 0Z" fill="#51607A" /></svg>