<?xml version="1.0" standalone="no"?><!DOCTYPE svg PUBLIC "-//W3C//DTD SVG 1.1//EN" "http://www.w3.org/Graphics/SVG/1.1/DTD/svg11.dtd"><svg class="icon" width="200px" height="200.00px" viewBox="0 0 1024 1024" version="1.1" xmlns="http://www.w3.org/2000/svg"><path d="M854.9 831.7H165.5c-6.6 0-12-5.4-12-12V268c0-6.6 5.4-12 12-12h689.4c6.6 0 12 5.4 12 12v551.8c0 6.5-5.4 11.9-12 11.9z" fill="#F1F1F1" /><path d="M512.3 512.1m-117 0a117 117 0 1 0 234 0 117 117 0 1 0-234 0Z" fill="#C3C3C3" /><path d="M512.2 115.5L98.8 273.3v192.3l413.4-192.3 415.9 192.3V273.3z" fill="#D34141" /></svg>