<?xml version="1.0" standalone="no"?><!DOCTYPE svg PUBLIC "-//W3C//DTD SVG 1.1//EN" "http://www.w3.org/Graphics/SVG/1.1/DTD/svg11.dtd"><svg class="icon" width="200px" height="200.00px" viewBox="0 0 1024 1024" version="1.1" xmlns="http://www.w3.org/2000/svg"><path d="M916 959.3H110c-6.6 0-12-5.4-12-12V448.2h830v499.1c0 6.6-5.4 12-12 12z" fill="#B65B24" /><path d="M110 256.1h806c6.6 0 12 5.4 12 12v180.1H98V268.1c0-6.6 5.4-12 12-12z" fill="#9A4C1C" /><path d="M353.1 448m-52.4 0a52.4 52.4 0 1 0 104.8 0 52.4 52.4 0 1 0-104.8 0Z" fill="#C79210" /><path d="M673.1 448.2m-52.4 0a52.4 52.4 0 1 0 104.8 0 52.4 52.4 0 1 0-104.8 0Z" fill="#C79210" /><path d="M684.5 375H340.6c-14.9 0-27-12.1-27-27V154.7c0-14.9 12.1-27 27-27h343.9c14.9 0 27 12.1 27 27V348c0 14.9-12.1 27-27 27z m-340.9-30h337.9V157.7H343.6V345z" fill="#9A4C1C" /></svg>