<?xml version="1.0" standalone="no"?><!DOCTYPE svg PUBLIC "-//W3C//DTD SVG 1.1//EN" "http://www.w3.org/Graphics/SVG/1.1/DTD/svg11.dtd"><svg class="icon" width="200px" height="200.00px" viewBox="0 0 1024 1024" version="1.1" xmlns="http://www.w3.org/2000/svg"><path d="M551 640h-86.4c-74 0-134.5-60.5-134.5-134.5V198.6c0-74 60.5-134.5 134.5-134.5H551c74 0 134.5 60.5 134.5 134.5v306.8c0 74-60.5 134.6-134.5 134.6z" fill="#4097A0" /><path d="M482.3 711.9h60.5v161.6h-60.5z" fill="#506F7A" /><path d="M663.9 920H358.7c-6.6 0-12-5.4-12-12v-24.8c0-6.6 5.4-12 12-12h305.2c6.6 0 12 5.4 12 12V908c0 6.6-5.4 12-12 12z" fill="#506F7A" /><path d="M330.1 301h121v25.8h-121zM330.1 351.8h121v25.8h-121zM330.1 250.3h121v25.8h-121zM564.5 301h121v25.8h-121zM564.5 351.8h121v25.8h-121zM564.5 250.3h121v25.8h-121z" fill="#2A6E78" /><path d="M507.5 723.4c-37.9 0-74.5-9.7-109-28.9-32.9-18.3-62.4-44.5-87.7-77.7-51.3-67.5-79.6-157.1-79.6-252.2h30c0 181.3 110.5 328.9 246.2 328.9 135.8 0 246.2-147.5 246.2-328.9h30c0 95.1-28.3 184.7-79.6 252.2-25.3 33.2-54.8 59.4-87.7 77.7-34.3 19.1-70.9 28.9-108.8 28.9z" fill="#506F7A" /></svg>