<?xml version="1.0" standalone="no"?><!DOCTYPE svg PUBLIC "-//W3C//DTD SVG 1.1//EN" "http://www.w3.org/Graphics/SVG/1.1/DTD/svg11.dtd"><svg class="icon" width="200px" height="200.00px" viewBox="0 0 1024 1024" version="1.1" xmlns="http://www.w3.org/2000/svg"><path d="M242.656 407.603l321.872 321.872-35.001 35.002-321.872-321.872z" fill="#7E7E7E" /><path d="M209.4 388.9L590.5 770S648 574.1 766 495.5c0 0 145.9-227.1 80.3-364.8 0 0-275.3-35-402.1 98.3 0-0.1-113.3 131.9-234.8 159.9z" fill="#B0CED8" /><path d="M298.6 778.4c-24.4 21.3-65.6 13.9-92-16.4s-27.9-72.1-3.5-93.4 114.4-56.3 140.7-25.9c26.5 30.3-20.7 114.4-45.2 135.7z" fill="#FF5500" /><path d="M613.3 346.2m-74.4 0a74.4 74.4 0 1 0 148.8 0 74.4 74.4 0 1 0-148.8 0Z" fill="#8BABB5" /><path d="M613.3 345.1m-54.7 0a54.7 54.7 0 1 0 109.4 0 54.7 54.7 0 1 0-109.4 0Z" fill="#FFFFFF" /></svg>