<?xml version="1.0" standalone="no"?><!DOCTYPE svg PUBLIC "-//W3C//DTD SVG 1.1//EN" "http://www.w3.org/Graphics/SVG/1.1/DTD/svg11.dtd"><svg class="icon" width="200px" height="200.00px" viewBox="0 0 1024 1024" version="1.1" xmlns="http://www.w3.org/2000/svg"><path d="M895.8 98.2c0.2 0.9 0.3 1.8 0.3 2.8v78.8c0 6.6-5.4 12-12 12h-40c-6.6 0-12-5.4-12-12V101c0-1 0.1-1.9 0.3-2.8H191.7c0.2 0.9 0.3 1.8 0.3 2.8v78.8c0 6.6-5.4 12-12 12h-40c-6.6 0-12-5.4-12-12V101c0-1 0.1-1.9 0.3-2.8H65v830h64.5c-0.9-1.7-1.5-3.6-1.5-5.7v-78.8c0-6.6 5.4-12 12-12h40c6.6 0 12 5.4 12 12v78.8c0 2.1-0.5 4-1.5 5.7h643c-0.9-1.7-1.5-3.6-1.5-5.7v-78.8c0-6.6 5.4-12 12-12h40c6.6 0 12 5.4 12 12v78.8c0 2.1-0.5 4-1.5 5.7h66.2v-830h-64.9zM192.2 755.8c0 6.6-5.4 12-12 12h-40c-6.6 0-12-5.4-12-12v-58.4c0-6.6 5.4-12 12-12h40c6.6 0 12 5.4 12 12v58.4z m0-143.2c0 6.6-5.4 12-12 12h-40c-6.6 0-12-5.4-12-12v-58.4c0-6.6 5.4-12 12-12h40c6.6 0 12 5.4 12 12v58.4z m0-143.1c0 6.6-5.4 12-12 12h-40c-6.6 0-12-5.4-12-12v-58.4c0-6.6 5.4-12 12-12h40c6.6 0 12 5.4 12 12v58.4z m0-143.2c0 6.6-5.4 12-12 12h-40c-6.6 0-12-5.4-12-12V268c0-6.6 5.4-12 12-12h40c6.6 0 12 5.4 12 12v58.3z m703.9 429.5c0 6.6-5.4 12-12 12h-40c-6.6 0-12-5.4-12-12v-58.4c0-6.6 5.4-12 12-12h40c6.6 0 12 5.4 12 12v58.4z m0-143.2c0 6.6-5.4 12-12 12h-40c-6.6 0-12-5.4-12-12v-58.4c0-6.6 5.4-12 12-12h40c6.6 0 12 5.4 12 12v58.4z m0-143.1c0 6.6-5.4 12-12 12h-40c-6.6 0-12-5.4-12-12v-58.4c0-6.6 5.4-12 12-12h40c6.6 0 12 5.4 12 12v58.4z m0-143.2c0 6.6-5.4 12-12 12h-40c-6.6 0-12-5.4-12-12V268c0-6.6 5.4-12 12-12h40c6.6 0 12 5.4 12 12v58.3z" fill="#6E6E6E" /><path d="M756.2 448.2H268.1c-6.6 0-12-5.4-12-12V203.8c0-6.6 5.4-12 12-12h488.1c6.6 0 12 5.4 12 12v232.4c0 6.6-5.4 12-12 12z" fill="#8C8C8C" /><path d="M756 831.7H267.9c-6.6 0-12-5.4-12-12V587.3c0-6.6 5.4-12 12-12H756c6.6 0 12 5.4 12 12v232.4c0 6.6-5.4 12-12 12z" fill="#515151" /></svg>