<?xml version="1.0" standalone="no"?><!DOCTYPE svg PUBLIC "-//W3C//DTD SVG 1.1//EN" "http://www.w3.org/Graphics/SVG/1.1/DTD/svg11.dtd"><svg class="icon" width="200px" height="200.00px" viewBox="0 0 1024 1024" version="1.1" xmlns="http://www.w3.org/2000/svg"><path d="M884.2 665.7H268c-6.6 0-12-5.4-12-12v-387c0-6.6 5.4-12 12-12h616.2c6.6 0 12 5.4 12 12v387c0 6.6-5.4 12-12 12z" fill="#FFAD11" /><path d="M819.2 800H203c-6.6 0-12-5.4-12-12V401c0-6.6 5.4-12 12-12h616.2c6.6 0 12 5.4 12 12v387c0 6.6-5.4 12-12 12z" fill="#00A3C6" /><path d="M384.1 895.6l71.3-142.8H312.8z" fill="#00A3C6" /><path d="M768.1 145.1l-71.3 113.6h142.7z" fill="#FFAD11" /><path d="M320.1 608.2m-43 0a43 43 0 1 0 86 0 43 43 0 1 0-86 0Z" fill="#006A80" /><path d="M511.3 608.2m-43 0a43 43 0 1 0 86 0 43 43 0 1 0-86 0Z" fill="#006A80" /><path d="M704.1 608.2m-43 0a43 43 0 1 0 86 0 43 43 0 1 0-86 0Z" fill="#006A80" /></svg>