<?xml version="1.0" standalone="no"?><!DOCTYPE svg PUBLIC "-//W3C//DTD SVG 1.1//EN" "http://www.w3.org/Graphics/SVG/1.1/DTD/svg11.dtd"><svg class="icon" width="200px" height="200.00px" viewBox="0 0 1024 1024" version="1.1" xmlns="http://www.w3.org/2000/svg"><path d="M640.1 448.2m-59.1 0a59.1 59.1 0 1 0 118.2 0 59.1 59.1 0 1 0-118.2 0Z" fill="#FFFFFF" /><path d="M384.1 448.2m-59.1 0a59.1 59.1 0 1 0 118.2 0 59.1 59.1 0 1 0-118.2 0Z" fill="#FFFFFF" /><path d="M127.8 364h770.1v564.3H127.8z" fill="#F1F1F1" /><path d="M96.3 271.2h831.6V364H96.3z" fill="#C3C3C3" /><path d="M465.4 271.5h-49.2c-26 0-47.2-21.2-47.2-47.2v-48.7c0-26 21.2-47.2 47.2-47.2h49.2c26 0 47.2 21.2 47.2 47.2v48.7c0.1 26-21.1 47.2-47.2 47.2z m-49.2-125.6c-16.3 0-29.6 13.3-29.6 29.6v48.7c0 16.3 13.3 29.6 29.6 29.6h49.2c16.3 0 29.6-13.3 29.6-29.6v-48.7c0-16.3-13.3-29.6-29.6-29.6h-49.2z" fill="#D34141" /><path d="M608.9 271h-49.2c-26 0-47.2-21.2-47.2-47.2V175c0-26 21.2-47.2 47.2-47.2h49.2c26 0 47.2 21.2 47.2 47.2v48.7c0 26.1-21.1 47.3-47.2 47.3z m-49.2-125.6c-16.3 0-29.6 13.3-29.6 29.6v48.7c0 16.3 13.3 29.6 29.6 29.6h49.2c16.3 0 29.6-13.3 29.6-29.6V175c0-16.3-13.3-29.6-29.6-29.6h-49.2z" fill="#D34141" /><path d="M496 194.6h33.4v733.7H496z" fill="#D34141" /><path d="M897.904 584.895v33.4h-770.1v-33.4z" fill="#D34141" /></svg>