<?xml version="1.0" standalone="no"?><!DOCTYPE svg PUBLIC "-//W3C//DTD SVG 1.1//EN" "http://www.w3.org/Graphics/SVG/1.1/DTD/svg11.dtd"><svg class="icon" width="200px" height="200.00px" viewBox="0 0 1024 1024" version="1.1" xmlns="http://www.w3.org/2000/svg"><path d="M640.1 448.2m-59.1 0a59.1 59.1 0 1 0 118.2 0 59.1 59.1 0 1 0-118.2 0Z" fill="#FFFFFF" /><path d="M384.1 448.2m-59.1 0a59.1 59.1 0 1 0 118.2 0 59.1 59.1 0 1 0-118.2 0Z" fill="#FFFFFF" /><path d="M414.7 459.2l463.4-355 30.1 26.1-415.6 413.6z" fill="#43C0DD" /><path d="M492.6 543.8l415.3-413.9 26.6 25.1-356 476.7z" fill="#0F9ABE" /><path d="M353 499.2S214.8 548 225.6 695.7c0 0 0 132.8-130.1 128.7l48.8 31.2S441 945 525.1 699.8L353 499.2z" fill="#927152" /><path d="M522.6 742.2L297.1 516.7c-1.7-1.7-1.7-4.5 0-6.2l94.4-94.4c1.7-1.7 4.5-1.7 6.2 0l225.5 225.5c1.7 1.7 1.7 4.5 0 6.2l-94.4 94.4c-1.7 1.7-4.5 1.7-6.2 0z" fill="#C8C8C8" /></svg>