<?xml version="1.0" standalone="no"?><!DOCTYPE svg PUBLIC "-//W3C//DTD SVG 1.1//EN" "http://www.w3.org/Graphics/SVG/1.1/DTD/svg11.dtd"><svg class="icon" width="200px" height="200.00px" viewBox="0 0 1024 1024" version="1.1" xmlns="http://www.w3.org/2000/svg"><path d="M884.2 927.6H140c-6.6 0-12-5.4-12-12V512.1h768.1v403.5c0.1 6.6-5.3 12-11.9 12z" fill="#644892" /><path d="M139.8 98.2h744.1c6.6 0 12 5.4 12 12v402.1H127.8V110.2c0-6.6 5.4-12 12-12z" fill="#5B3F89" /><path d="M96.8 469.8h31.3v84.4H96.8zM896.2 470.3h31.3v84.4h-31.3z" fill="#838489" /><path d="M459.4 694c-16.4 0-39.6-10.2-57.4-58.7-12.2-33.2-18.9-76.9-18.9-123.3 0-46.3 6.7-90.1 18.9-123.3 17.8-48.6 41.1-58.7 57.4-58.7s39.6 10.2 57.4 58.7c12.2 33.2 18.9 76.9 18.9 123.3 0 46.3-6.7 90.1-18.9 123.3-17.8 48.5-41 58.7-57.4 58.7z m0-334c-7.4 0-19.4 12.1-29.3 39.1-11 29.9-17 70-17 112.9 0 42.9 6.1 83 17 112.9 9.9 27 21.8 39.1 29.3 39.1s19.4-12.1 29.3-39.1c11-29.9 17-70 17-112.9 0-42.9-6.1-83-17-112.9-9.9-27-21.9-39.1-29.3-39.1zM556 371.3v44.2h42.8v274.4h41.5V332.4h-32.8s-3.6 42-51.5 38.9z" fill="#FEFEFE" /></svg>