<?xml version="1.0" standalone="no"?><!DOCTYPE svg PUBLIC "-//W3C//DTD SVG 1.1//EN" "http://www.w3.org/Graphics/SVG/1.1/DTD/svg11.dtd"><svg class="icon" width="200px" height="200.00px" viewBox="0 0 1024 1024" version="1.1" xmlns="http://www.w3.org/2000/svg"><path d="M129 528.6v370.5c0 6.6 5.4 12 12 12h244V239.9L129 528.6z" fill="#92D76C" /><path d="M387.1 238.7h-2.2v672.4h253V572.8z" fill="#7CC156" /><path d="M637.9 576.4v334.7H882c6.6 0 12-5.6 12-12.4V230.2c0-2.5-0.7-4.8-2-6.8l-254.1 353z" fill="#65A342" /><path d="M128 506m-45.2 0a45.2 45.2 0 1 0 90.4 0 45.2 45.2 0 1 0-90.4 0Z" fill="#D2DBDB" /><path d="M384.1 256m-45.2 0a45.2 45.2 0 1 0 90.4 0 45.2 45.2 0 1 0-90.4 0Z" fill="#D2DBDB" /><path d="M640.8 574.1m-45.2 0a45.2 45.2 0 1 0 90.4 0 45.2 45.2 0 1 0-90.4 0Z" fill="#D2DBDB" /><path d="M892.6 224m-45.2 0a45.2 45.2 0 1 0 90.4 0 45.2 45.2 0 1 0-90.4 0Z" fill="#D2DBDB" /></svg>