<?xml version="1.0" standalone="no"?><!DOCTYPE svg PUBLIC "-//W3C//DTD SVG 1.1//EN" "http://www.w3.org/Graphics/SVG/1.1/DTD/svg11.dtd"><svg class="icon" width="200px" height="200.00px" viewBox="0 0 1024 1024" version="1.1" xmlns="http://www.w3.org/2000/svg"><path d="M919.2 525.3h-80c0-211.1-148.2-382.9-330.4-382.9S178.4 314.2 178.4 525.3h-80c0-61.9 10.6-121.9 31.6-178.5 20.4-54.9 49.6-104.4 86.8-146.9 37.6-42.9 81.5-76.7 130.4-100.3 51.1-24.7 105.5-37.2 161.6-37.2 56.1 0 110.4 12.5 161.6 37.2 49 23.7 92.9 57.4 130.4 100.3 37.2 42.5 66.4 91.9 86.8 146.9 20.9 56.6 31.6 116.7 31.6 178.5z" fill="#C6C7C8" /><path d="M515 959.6H124.2c-33.1 0-60-26.8-60-60V315.9c0-33.1 26.8-60 60-60H515v703.7z" fill="#D8BC35" /><path d="M515 256h385.4c33.1 0 60 26.8 60 60v583.7c0 33.1-26.8 60-60 60H515V256z" fill="#C9A80D" /><path d="M514.7 563.3m-92.4 0a92.4 92.4 0 1 0 184.8 0 92.4 92.4 0 1 0-184.8 0Z" fill="#897200" /><path d="M492.6 618.5h44.2v85.4h-44.2z" fill="#897200" /></svg>