<?xml version="1.0" standalone="no"?><!DOCTYPE svg PUBLIC "-//W3C//DTD SVG 1.1//EN" "http://www.w3.org/Graphics/SVG/1.1/DTD/svg11.dtd"><svg class="icon" width="200px" height="200.00px" viewBox="0 0 1024 1024" version="1.1" xmlns="http://www.w3.org/2000/svg"><path d="M320.3 352.9a192 224.1 0 1 0 384 0 192 224.1 0 1 0-384 0Z" fill="#8DDDFE" /><path d="M64.2 448.9a448 191.9 0 1 0 896 0 448 191.9 0 1 0-896 0Z" fill="#7D8BA5" /><path d="M192 451.6m-76.7 0a76.7 76.7 0 1 0 153.4 0 76.7 76.7 0 1 0-153.4 0Z" fill="#56627A" /><path d="M511.6 451.6m-76.7 0a76.7 76.7 0 1 0 153.4 0 76.7 76.7 0 1 0-153.4 0Z" fill="#56627A" /><path d="M831.2 451.6m-76.7 0a76.7 76.7 0 1 0 153.4 0 76.7 76.7 0 1 0-153.4 0Z" fill="#56627A" /><path d="M320.3 622.4s175 32.8 318.3 10.7l284.1 289.6H98l222.3-300.3z" fill="#FFF3B9" /></svg>