<?xml version="1.0" standalone="no"?><!DOCTYPE svg PUBLIC "-//W3C//DTD SVG 1.1//EN" "http://www.w3.org/Graphics/SVG/1.1/DTD/svg11.dtd"><svg class="icon" width="200px" height="200.00px" viewBox="0 0 1024 1024" version="1.1" xmlns="http://www.w3.org/2000/svg"><path d="M640.1 448.2m-59.1 0a59.1 59.1 0 1 0 118.2 0 59.1 59.1 0 1 0-118.2 0Z" fill="#FFFFFF" /><path d="M384.1 448.2m-59.1 0a59.1 59.1 0 1 0 118.2 0 59.1 59.1 0 1 0-118.2 0Z" fill="#FFFFFF" /><path d="M766.8 98.2H110c-6.6 0-12 5.4-12 12v806c0 6.6 5.4 12 12 12h806c6.6 0 12-5.4 12-12V317.7L766.8 98.2z" fill="#5D699A" /><path d="M734.1 293.8H289.9c-18.7 0-33.9-15.2-33.9-33.9V98.2h512V260c0 18.7-15.2 33.8-33.9 33.8z" fill="#B2B2B2" /><path d="M289.9 448.2h444.4c18.7 0 33.9 15.2 33.9 33.9v446.1H256V482.1c0-18.7 15.2-33.9 33.9-33.9z" fill="#D9D9C1" /><path d="M640.1 128h64v128h-64z" fill="#747A90" /><path d="M320.1 538.1h384.1V570H320.1zM320.1 679.5h384.1v31.9H320.1zM321 820.9h384.1v31.9H321z" fill="#858A98" /></svg>