<?xml version="1.0" standalone="no"?><!DOCTYPE svg PUBLIC "-//W3C//DTD SVG 1.1//EN" "http://www.w3.org/Graphics/SVG/1.1/DTD/svg11.dtd"><svg class="icon" width="200px" height="110.23px" viewBox="0 0 1858 1024" version="1.1" xmlns="http://www.w3.org/2000/svg"><path d="M392.43112646 511.10097802a465.62753515 463.755875 0.1293947469 1 0 927.51174853 0 465.62753515 463.755875 0.1293947469 1 0-927.51174853 0Z" fill="#FF8932" /><path d="M507.33028453 511.10097802a350.31245311 348.85671696 90 1 0 697.71343389 0 350.31245311 348.85671696 90 1 0-697.71343389 0Z" fill="#FFFFFF" /><path d="M871.93806345 497.79451242v33.273963h-247.99501289v-33.273963z" fill="#808080" /><path d="M814.07463943 478.13895692h84.22472258v74.13855159h-84.22472258z" fill="#808080" /><path d="M839.44603789 267.3691915h33.27396443v247.99501291h-33.27396443z" fill="#808080" /><path d="M2254.52534158 1491.12320146c1.97564225 0 1.97564225-3.11943357 0-3.11943356s-1.97564225 3.11943357 0 3.11943356z" fill="#FFFFFF" /></svg>